<?xml version="1.0" encoding="utf-8"?>
<!-- Generator: Adobe Illustrator 24.1.2, SVG Export Plug-In . SVG Version: 6.00 Build 0)  -->
<svg version="1.1" id="Слой_1" xmlns="http://www.w3.org/2000/svg" xmlns:xlink="http://www.w3.org/1999/xlink" x="0px" y="0px"
	 viewBox="0 0 288 560" style="enable-background:new 0 0 288 560;" xml:space="preserve">
<style type="text/css">
	.st0{fill:none;stroke:#000000;stroke-miterlimit:10;}
</style>
<line class="st0" x1="123.65" y1="303.13" x2="123.65" y2="261.57"/>
<line class="st0" x1="78.19" y1="261.57" x2="123.65" y2="261.57"/>
<line class="st0" x1="123.55" y1="216.22" x2="78.19" y2="261.57"/>
<line class="st0" x1="168.91" y1="303.13" x2="123.65" y2="303.13"/>
<line class="st0" x1="168.91" y1="261.57" x2="168.91" y2="303.13"/>
<line class="st0" x1="84.15" y1="216.22" x2="123.55" y2="216.22"/>
<line class="st0" x1="126.1" y1="174.27" x2="84.15" y2="216.22"/>
<line class="st0" x1="102.28" y1="174.27" x2="126.1" y2="174.27"/>
<line class="st0" x1="143.6" y1="132.94" x2="102.28" y2="174.27"/>
<line class="st0" x1="169.29" y1="261.57" x2="214.75" y2="261.57"/>
<line class="st0" x1="168.78" y1="216.35" x2="214.28" y2="261.85"/>
<line class="st0" x1="169" y1="216.22" x2="208.4" y2="216.22"/>
<line class="st0" x1="166.87" y1="174.52" x2="208.45" y2="216.1"/>
<line class="st0" x1="166.83" y1="174.27" x2="190.66" y2="174.27"/>
<line class="st0" x1="143.6" y1="132.94" x2="190.63" y2="174.17"/>
</svg>
